<?xml version="1.0" encoding="utf-8" standalone="no"?>
<!DOCTYPE svg PUBLIC "-//W3C//DTD SVG 1.1//EN"
  "http://www.w3.org/Graphics/SVG/1.1/DTD/svg11.dtd">
<svg xmlns:xlink="http://www.w3.org/1999/xlink" width="712.872187pt" height="423.034375pt" viewBox="0 0 712.872187 423.034375" xmlns="http://www.w3.org/2000/svg" version="1.1">
 <metadata>
  <rdf:RDF xmlns:dc="http://purl.org/dc/elements/1.1/" xmlns:cc="http://creativecommons.org/ns#" xmlns:rdf="http://www.w3.org/1999/02/22-rdf-syntax-ns#">
   <cc:Work>
    <dc:type rdf:resource="http://purl.org/dc/dcmitype/StillImage"/>
    <dc:date>2026-05-05T13:32:44.594463</dc:date>
    <dc:format>image/svg+xml</dc:format>
    <dc:creator>
     <cc:Agent>
      <dc:title>Matplotlib v3.10.8, https://matplotlib.org/</dc:title>
     </cc:Agent>
    </dc:creator>
   </cc:Work>
  </rdf:RDF>
 </metadata>
 <defs>
  <style type="text/css">*{stroke-linejoin: round; stroke-linecap: butt}</style>
 </defs>
 <g id="figure_1">
  <g id="patch_1">
   <path d="M 0 423.034375 
L 712.872187 423.034375 
L 712.872187 0 
L 0 0 
z
" style="fill: #ffffff"/>
  </g>
  <g id="axes_1">
   <g id="patch_2">
    <path d="M 28.942188 385.478125 
L 705.672187 385.478125 
L 705.672187 22.318125 
L 28.942188 22.318125 
z
" style="fill: #ffffff"/>
   </g>
   <g id="matplotlib.axis_1">
    <g id="xtick_1">
     <g id="line2d_1">
      <path d="M 58.426275 385.478125 
L 58.426275 22.318125 
" clip-path="url(#pe940b6b0ef)" style="fill: none; stroke: #b0b0b0; stroke-width: 0.8; stroke-linecap: square"/>
     </g>
     <g id="line2d_2">
      <defs>
       <path id="mda25a52ac3" d="M 0 0 
L 0 3.5 
" style="stroke: #000000; stroke-width: 0.8"/>
      </defs>
      <g>
       <use xlink:href="#mda25a52ac3" x="58.426275" y="385.478125" style="stroke: #000000; stroke-width: 0.8"/>
      </g>
     </g>
     <g id="text_1">
      <!-- 2024-01 -->
      <g transform="translate(37.534868 400.076562) scale(0.1 -0.1)">
       <defs>
        <path id="DejaVuSans-32" d="M 1228 531 
L 3431 531 
L 3431 0 
L 469 0 
L 469 531 
Q 828 903 1448 1529 
Q 2069 2156 2228 2338 
Q 2531 2678 2651 2914 
Q 2772 3150 2772 3378 
Q 2772 3750 2511 3984 
Q 2250 4219 1831 4219 
Q 1534 4219 1204 4116 
Q 875 4013 500 3803 
L 500 4441 
Q 881 4594 1212 4672 
Q 1544 4750 1819 4750 
Q 2544 4750 2975 4387 
Q 3406 4025 3406 3419 
Q 3406 3131 3298 2873 
Q 3191 2616 2906 2266 
Q 2828 2175 2409 1742 
Q 1991 1309 1228 531 
z
" transform="scale(0.015625)"/>
        <path id="DejaVuSans-30" d="M 2034 4250 
Q 1547 4250 1301 3770 
Q 1056 3291 1056 2328 
Q 1056 1369 1301 889 
Q 1547 409 2034 409 
Q 2525 409 2770 889 
Q 3016 1369 3016 2328 
Q 3016 3291 2770 3770 
Q 2525 4250 2034 4250 
z
M 2034 4750 
Q 2819 4750 3233 4129 
Q 3647 3509 3647 2328 
Q 3647 1150 3233 529 
Q 2819 -91 2034 -91 
Q 1250 -91 836 529 
Q 422 1150 422 2328 
Q 422 3509 836 4129 
Q 1250 4750 2034 4750 
z
" transform="scale(0.015625)"/>
        <path id="DejaVuSans-34" d="M 2419 4116 
L 825 1625 
L 2419 1625 
L 2419 4116 
z
M 2253 4666 
L 3047 4666 
L 3047 1625 
L 3713 1625 
L 3713 1100 
L 3047 1100 
L 3047 0 
L 2419 0 
L 2419 1100 
L 313 1100 
L 313 1709 
L 2253 4666 
z
" transform="scale(0.015625)"/>
        <path id="DejaVuSans-2d" d="M 313 2009 
L 1997 2009 
L 1997 1497 
L 313 1497 
L 313 2009 
z
" transform="scale(0.015625)"/>
        <path id="DejaVuSans-31" d="M 794 531 
L 1825 531 
L 1825 4091 
L 703 3866 
L 703 4441 
L 1819 4666 
L 2450 4666 
L 2450 531 
L 3481 531 
L 3481 0 
L 794 0 
L 794 531 
z
" transform="scale(0.015625)"/>
       </defs>
       <use xlink:href="#DejaVuSans-32"/>
       <use xlink:href="#DejaVuSans-30" transform="translate(63.623047 0)"/>
       <use xlink:href="#DejaVuSans-32" transform="translate(127.246094 0)"/>
       <use xlink:href="#DejaVuSans-34" transform="translate(190.869141 0)"/>
       <use xlink:href="#DejaVuSans-2d" transform="translate(254.492188 0)"/>
       <use xlink:href="#DejaVuSans-30" transform="translate(290.576172 0)"/>
       <use xlink:href="#DejaVuSans-31" transform="translate(354.199219 0)"/>
      </g>
     </g>
    </g>
    <g id="xtick_2">
     <g id="line2d_3">
      <path d="M 135.008319 385.478125 
L 135.008319 22.318125 
" clip-path="url(#pe940b6b0ef)" style="fill: none; stroke: #b0b0b0; stroke-width: 0.8; stroke-linecap: square"/>
     </g>
     <g id="line2d_4">
      <g>
       <use xlink:href="#mda25a52ac3" x="135.008319" y="385.478125" style="stroke: #000000; stroke-width: 0.8"/>
      </g>
     </g>
     <g id="text_2">
      <!-- 2024-03 -->
      <g transform="translate(114.116913 400.076562) scale(0.1 -0.1)">
       <defs>
        <path id="DejaVuSans-33" d="M 2597 2516 
Q 3050 2419 3304 2112 
Q 3559 1806 3559 1356 
Q 3559 666 3084 287 
Q 2609 -91 1734 -91 
Q 1441 -91 1130 -33 
Q 819 25 488 141 
L 488 750 
Q 750 597 1062 519 
Q 1375 441 1716 441 
Q 2309 441 2620 675 
Q 2931 909 2931 1356 
Q 2931 1769 2642 2001 
Q 2353 2234 1838 2234 
L 1294 2234 
L 1294 2753 
L 1863 2753 
Q 2328 2753 2575 2939 
Q 2822 3125 2822 3475 
Q 2822 3834 2567 4026 
Q 2313 4219 1838 4219 
Q 1578 4219 1281 4162 
Q 984 4106 628 3988 
L 628 4550 
Q 988 4650 1302 4700 
Q 1616 4750 1894 4750 
Q 2613 4750 3031 4423 
Q 3450 4097 3450 3541 
Q 3450 3153 3228 2886 
Q 3006 2619 2597 2516 
z
" transform="scale(0.015625)"/>
       </defs>
       <use xlink:href="#DejaVuSans-32"/>
       <use xlink:href="#DejaVuSans-30" transform="translate(63.623047 0)"/>
       <use xlink:href="#DejaVuSans-32" transform="translate(127.246094 0)"/>
       <use xlink:href="#DejaVuSans-34" transform="translate(190.869141 0)"/>
       <use xlink:href="#DejaVuSans-2d" transform="translate(254.492188 0)"/>
       <use xlink:href="#DejaVuSans-30" transform="translate(290.576172 0)"/>
       <use xlink:href="#DejaVuSans-33" transform="translate(354.199219 0)"/>
      </g>
     </g>
    </g>
    <g id="xtick_3">
     <g id="line2d_5">
      <path d="M 212.866731 385.478125 
L 212.866731 22.318125 
" clip-path="url(#pe940b6b0ef)" style="fill: none; stroke: #b0b0b0; stroke-width: 0.8; stroke-linecap: square"/>
     </g>
     <g id="line2d_6">
      <g>
       <use xlink:href="#mda25a52ac3" x="212.866731" y="385.478125" style="stroke: #000000; stroke-width: 0.8"/>
      </g>
     </g>
     <g id="text_3">
      <!-- 2024-05 -->
      <g transform="translate(191.975325 400.076562) scale(0.1 -0.1)">
       <defs>
        <path id="DejaVuSans-35" d="M 691 4666 
L 3169 4666 
L 3169 4134 
L 1269 4134 
L 1269 2991 
Q 1406 3038 1543 3061 
Q 1681 3084 1819 3084 
Q 2600 3084 3056 2656 
Q 3513 2228 3513 1497 
Q 3513 744 3044 326 
Q 2575 -91 1722 -91 
Q 1428 -91 1123 -41 
Q 819 9 494 109 
L 494 744 
Q 775 591 1075 516 
Q 1375 441 1709 441 
Q 2250 441 2565 725 
Q 2881 1009 2881 1497 
Q 2881 1984 2565 2268 
Q 2250 2553 1709 2553 
Q 1456 2553 1204 2497 
Q 953 2441 691 2322 
L 691 4666 
z
" transform="scale(0.015625)"/>
       </defs>
       <use xlink:href="#DejaVuSans-32"/>
       <use xlink:href="#DejaVuSans-30" transform="translate(63.623047 0)"/>
       <use xlink:href="#DejaVuSans-32" transform="translate(127.246094 0)"/>
       <use xlink:href="#DejaVuSans-34" transform="translate(190.869141 0)"/>
       <use xlink:href="#DejaVuSans-2d" transform="translate(254.492188 0)"/>
       <use xlink:href="#DejaVuSans-30" transform="translate(290.576172 0)"/>
       <use xlink:href="#DejaVuSans-35" transform="translate(354.199219 0)"/>
      </g>
     </g>
    </g>
    <g id="xtick_4">
     <g id="line2d_7">
      <path d="M 290.725143 385.478125 
L 290.725143 22.318125 
" clip-path="url(#pe940b6b0ef)" style="fill: none; stroke: #b0b0b0; stroke-width: 0.8; stroke-linecap: square"/>
     </g>
     <g id="line2d_8">
      <g>
       <use xlink:href="#mda25a52ac3" x="290.725143" y="385.478125" style="stroke: #000000; stroke-width: 0.8"/>
      </g>
     </g>
     <g id="text_4">
      <!-- 2024-07 -->
      <g transform="translate(269.833737 400.076562) scale(0.1 -0.1)">
       <defs>
        <path id="DejaVuSans-37" d="M 525 4666 
L 3525 4666 
L 3525 4397 
L 1831 0 
L 1172 0 
L 2766 4134 
L 525 4134 
L 525 4666 
z
" transform="scale(0.015625)"/>
       </defs>
       <use xlink:href="#DejaVuSans-32"/>
       <use xlink:href="#DejaVuSans-30" transform="translate(63.623047 0)"/>
       <use xlink:href="#DejaVuSans-32" transform="translate(127.246094 0)"/>
       <use xlink:href="#DejaVuSans-34" transform="translate(190.869141 0)"/>
       <use xlink:href="#DejaVuSans-2d" transform="translate(254.492188 0)"/>
       <use xlink:href="#DejaVuSans-30" transform="translate(290.576172 0)"/>
       <use xlink:href="#DejaVuSans-37" transform="translate(354.199219 0)"/>
      </g>
     </g>
    </g>
    <g id="xtick_5">
     <g id="line2d_9">
      <path d="M 369.859922 385.478125 
L 369.859922 22.318125 
" clip-path="url(#pe940b6b0ef)" style="fill: none; stroke: #b0b0b0; stroke-width: 0.8; stroke-linecap: square"/>
     </g>
     <g id="line2d_10">
      <g>
       <use xlink:href="#mda25a52ac3" x="369.859922" y="385.478125" style="stroke: #000000; stroke-width: 0.8"/>
      </g>
     </g>
     <g id="text_5">
      <!-- 2024-09 -->
      <g transform="translate(348.968516 400.076562) scale(0.1 -0.1)">
       <defs>
        <path id="DejaVuSans-39" d="M 703 97 
L 703 672 
Q 941 559 1184 500 
Q 1428 441 1663 441 
Q 2288 441 2617 861 
Q 2947 1281 2994 2138 
Q 2813 1869 2534 1725 
Q 2256 1581 1919 1581 
Q 1219 1581 811 2004 
Q 403 2428 403 3163 
Q 403 3881 828 4315 
Q 1253 4750 1959 4750 
Q 2769 4750 3195 4129 
Q 3622 3509 3622 2328 
Q 3622 1225 3098 567 
Q 2575 -91 1691 -91 
Q 1453 -91 1209 -44 
Q 966 3 703 97 
z
M 1959 2075 
Q 2384 2075 2632 2365 
Q 2881 2656 2881 3163 
Q 2881 3666 2632 3958 
Q 2384 4250 1959 4250 
Q 1534 4250 1286 3958 
Q 1038 3666 1038 3163 
Q 1038 2656 1286 2365 
Q 1534 2075 1959 2075 
z
" transform="scale(0.015625)"/>
       </defs>
       <use xlink:href="#DejaVuSans-32"/>
       <use xlink:href="#DejaVuSans-30" transform="translate(63.623047 0)"/>
       <use xlink:href="#DejaVuSans-32" transform="translate(127.246094 0)"/>
       <use xlink:href="#DejaVuSans-34" transform="translate(190.869141 0)"/>
       <use xlink:href="#DejaVuSans-2d" transform="translate(254.492188 0)"/>
       <use xlink:href="#DejaVuSans-30" transform="translate(290.576172 0)"/>
       <use xlink:href="#DejaVuSans-39" transform="translate(354.199219 0)"/>
      </g>
     </g>
    </g>
    <g id="xtick_6">
     <g id="line2d_11">
      <path d="M 447.718334 385.478125 
L 447.718334 22.318125 
" clip-path="url(#pe940b6b0ef)" style="fill: none; stroke: #b0b0b0; stroke-width: 0.8; stroke-linecap: square"/>
     </g>
     <g id="line2d_12">
      <g>
       <use xlink:href="#mda25a52ac3" x="447.718334" y="385.478125" style="stroke: #000000; stroke-width: 0.8"/>
      </g>
     </g>
     <g id="text_6">
      <!-- 2024-11 -->
      <g transform="translate(426.826928 400.076562) scale(0.1 -0.1)">
       <use xlink:href="#DejaVuSans-32"/>
       <use xlink:href="#DejaVuSans-30" transform="translate(63.623047 0)"/>
       <use xlink:href="#DejaVuSans-32" transform="translate(127.246094 0)"/>
       <use xlink:href="#DejaVuSans-34" transform="translate(190.869141 0)"/>
       <use xlink:href="#DejaVuSans-2d" transform="translate(254.492188 0)"/>
       <use xlink:href="#DejaVuSans-31" transform="translate(290.576172 0)"/>
       <use xlink:href="#DejaVuSans-31" transform="translate(354.199219 0)"/>
      </g>
     </g>
    </g>
    <g id="xtick_7">
     <g id="line2d_13">
      <path d="M 525.576746 385.478125 
L 525.576746 22.318125 
" clip-path="url(#pe940b6b0ef)" style="fill: none; stroke: #b0b0b0; stroke-width: 0.8; stroke-linecap: square"/>
     </g>
     <g id="line2d_14">
      <g>
       <use xlink:href="#mda25a52ac3" x="525.576746" y="385.478125" style="stroke: #000000; stroke-width: 0.8"/>
      </g>
     </g>
     <g id="text_7">
      <!-- 2025-01 -->
      <g transform="translate(504.68534 400.076562) scale(0.1 -0.1)">
       <use xlink:href="#DejaVuSans-32"/>
       <use xlink:href="#DejaVuSans-30" transform="translate(63.623047 0)"/>
       <use xlink:href="#DejaVuSans-32" transform="translate(127.246094 0)"/>
       <use xlink:href="#DejaVuSans-35" transform="translate(190.869141 0)"/>
       <use xlink:href="#DejaVuSans-2d" transform="translate(254.492188 0)"/>
       <use xlink:href="#DejaVuSans-30" transform="translate(290.576172 0)"/>
       <use xlink:href="#DejaVuSans-31" transform="translate(354.199219 0)"/>
      </g>
     </g>
    </g>
    <g id="xtick_8">
     <g id="line2d_15">
      <path d="M 600.882423 385.478125 
L 600.882423 22.318125 
" clip-path="url(#pe940b6b0ef)" style="fill: none; stroke: #b0b0b0; stroke-width: 0.8; stroke-linecap: square"/>
     </g>
     <g id="line2d_16">
      <g>
       <use xlink:href="#mda25a52ac3" x="600.882423" y="385.478125" style="stroke: #000000; stroke-width: 0.8"/>
      </g>
     </g>
     <g id="text_8">
      <!-- 2025-03 -->
      <g transform="translate(579.991017 400.076562) scale(0.1 -0.1)">
       <use xlink:href="#DejaVuSans-32"/>
       <use xlink:href="#DejaVuSans-30" transform="translate(63.623047 0)"/>
       <use xlink:href="#DejaVuSans-32" transform="translate(127.246094 0)"/>
       <use xlink:href="#DejaVuSans-35" transform="translate(190.869141 0)"/>
       <use xlink:href="#DejaVuSans-2d" transform="translate(254.492188 0)"/>
       <use xlink:href="#DejaVuSans-30" transform="translate(290.576172 0)"/>
       <use xlink:href="#DejaVuSans-33" transform="translate(354.199219 0)"/>
      </g>
     </g>
    </g>
    <g id="xtick_9">
     <g id="line2d_17">
      <path d="M 678.740835 385.478125 
L 678.740835 22.318125 
" clip-path="url(#pe940b6b0ef)" style="fill: none; stroke: #b0b0b0; stroke-width: 0.8; stroke-linecap: square"/>
     </g>
     <g id="line2d_18">
      <g>
       <use xlink:href="#mda25a52ac3" x="678.740835" y="385.478125" style="stroke: #000000; stroke-width: 0.8"/>
      </g>
     </g>
     <g id="text_9">
      <!-- 2025-05 -->
      <g transform="translate(657.849429 400.076562) scale(0.1 -0.1)">
       <use xlink:href="#DejaVuSans-32"/>
       <use xlink:href="#DejaVuSans-30" transform="translate(63.623047 0)"/>
       <use xlink:href="#DejaVuSans-32" transform="translate(127.246094 0)"/>
       <use xlink:href="#DejaVuSans-35" transform="translate(190.869141 0)"/>
       <use xlink:href="#DejaVuSans-2d" transform="translate(254.492188 0)"/>
       <use xlink:href="#DejaVuSans-30" transform="translate(290.576172 0)"/>
       <use xlink:href="#DejaVuSans-35" transform="translate(354.199219 0)"/>
      </g>
     </g>
    </g>
    <g id="text_10">
     <!-- Time Step -->
     <g transform="translate(342.099375 413.754687) scale(0.1 -0.1)">
      <defs>
       <path id="DejaVuSans-54" d="M -19 4666 
L 3928 4666 
L 3928 4134 
L 2272 4134 
L 2272 0 
L 1638 0 
L 1638 4134 
L -19 4134 
L -19 4666 
z
" transform="scale(0.015625)"/>
       <path id="DejaVuSans-69" d="M 603 3500 
L 1178 3500 
L 1178 0 
L 603 0 
L 603 3500 
z
M 603 4863 
L 1178 4863 
L 1178 4134 
L 603 4134 
L 603 4863 
z
" transform="scale(0.015625)"/>
       <path id="DejaVuSans-6d" d="M 3328 2828 
Q 3544 3216 3844 3400 
Q 4144 3584 4550 3584 
Q 5097 3584 5394 3201 
Q 5691 2819 5691 2113 
L 5691 0 
L 5113 0 
L 5113 2094 
Q 5113 2597 4934 2840 
Q 4756 3084 4391 3084 
Q 3944 3084 3684 2787 
Q 3425 2491 3425 1978 
L 3425 0 
L 2847 0 
L 2847 2094 
Q 2847 2600 2669 2842 
Q 2491 3084 2119 3084 
Q 1678 3084 1418 2786 
Q 1159 2488 1159 1978 
L 1159 0 
L 581 0 
L 581 3500 
L 1159 3500 
L 1159 2956 
Q 1356 3278 1631 3431 
Q 1906 3584 2284 3584 
Q 2666 3584 2933 3390 
Q 3200 3197 3328 2828 
z
" transform="scale(0.015625)"/>
       <path id="DejaVuSans-65" d="M 3597 1894 
L 3597 1613 
L 953 1613 
Q 991 1019 1311 708 
Q 1631 397 2203 397 
Q 2534 397 2845 478 
Q 3156 559 3463 722 
L 3463 178 
Q 3153 47 2828 -22 
Q 2503 -91 2169 -91 
Q 1331 -91 842 396 
Q 353 884 353 1716 
Q 353 2575 817 3079 
Q 1281 3584 2069 3584 
Q 2775 3584 3186 3129 
Q 3597 2675 3597 1894 
z
M 3022 2063 
Q 3016 2534 2758 2815 
Q 2500 3097 2075 3097 
Q 1594 3097 1305 2825 
Q 1016 2553 972 2059 
L 3022 2063 
z
" transform="scale(0.015625)"/>
       <path id="DejaVuSans-20" transform="scale(0.015625)"/>
       <path id="DejaVuSans-53" d="M 3425 4513 
L 3425 3897 
Q 3066 4069 2747 4153 
Q 2428 4238 2131 4238 
Q 1616 4238 1336 4038 
Q 1056 3838 1056 3469 
Q 1056 3159 1242 3001 
Q 1428 2844 1947 2747 
L 2328 2669 
Q 3034 2534 3370 2195 
Q 3706 1856 3706 1288 
Q 3706 609 3251 259 
Q 2797 -91 1919 -91 
Q 1588 -91 1214 -16 
Q 841 59 441 206 
L 441 856 
Q 825 641 1194 531 
Q 1563 422 1919 422 
Q 2459 422 2753 634 
Q 3047 847 3047 1241 
Q 3047 1584 2836 1778 
Q 2625 1972 2144 2069 
L 1759 2144 
Q 1053 2284 737 2584 
Q 422 2884 422 3419 
Q 422 4038 858 4394 
Q 1294 4750 2059 4750 
Q 2388 4750 2728 4690 
Q 3069 4631 3425 4513 
z
" transform="scale(0.015625)"/>
       <path id="DejaVuSans-74" d="M 1172 4494 
L 1172 3500 
L 2356 3500 
L 2356 3053 
L 1172 3053 
L 1172 1153 
Q 1172 725 1289 603 
Q 1406 481 1766 481 
L 2356 481 
L 2356 0 
L 1766 0 
Q 1100 0 847 248 
Q 594 497 594 1153 
L 594 3053 
L 172 3053 
L 172 3500 
L 594 3500 
L 594 4494 
L 1172 4494 
z
" transform="scale(0.015625)"/>
       <path id="DejaVuSans-70" d="M 1159 525 
L 1159 -1331 
L 581 -1331 
L 581 3500 
L 1159 3500 
L 1159 2969 
Q 1341 3281 1617 3432 
Q 1894 3584 2278 3584 
Q 2916 3584 3314 3078 
Q 3713 2572 3713 1747 
Q 3713 922 3314 415 
Q 2916 -91 2278 -91 
Q 1894 -91 1617 61 
Q 1341 213 1159 525 
z
M 3116 1747 
Q 3116 2381 2855 2742 
Q 2594 3103 2138 3103 
Q 1681 3103 1420 2742 
Q 1159 2381 1159 1747 
Q 1159 1113 1420 752 
Q 1681 391 2138 391 
Q 2594 391 2855 752 
Q 3116 1113 3116 1747 
z
" transform="scale(0.015625)"/>
      </defs>
      <use xlink:href="#DejaVuSans-54"/>
      <use xlink:href="#DejaVuSans-69" transform="translate(57.958984 0)"/>
      <use xlink:href="#DejaVuSans-6d" transform="translate(85.742188 0)"/>
      <use xlink:href="#DejaVuSans-65" transform="translate(183.154297 0)"/>
      <use xlink:href="#DejaVuSans-20" transform="translate(244.677734 0)"/>
      <use xlink:href="#DejaVuSans-53" transform="translate(276.464844 0)"/>
      <use xlink:href="#DejaVuSans-74" transform="translate(339.941406 0)"/>
      <use xlink:href="#DejaVuSans-65" transform="translate(379.150391 0)"/>
      <use xlink:href="#DejaVuSans-70" transform="translate(440.673828 0)"/>
     </g>
    </g>
   </g>
   <g id="matplotlib.axis_2">
    <g id="ytick_1">
     <g id="line2d_19">
      <path d="M 28.942188 341.458731 
L 705.672187 341.458731 
" clip-path="url(#pe940b6b0ef)" style="fill: none; stroke: #b0b0b0; stroke-width: 0.8; stroke-linecap: square"/>
     </g>
     <g id="line2d_20">
      <defs>
       <path id="m19c337e1e1" d="M 0 0 
L -3.5 0 
" style="stroke: #000000; stroke-width: 0.8"/>
      </defs>
      <g>
       <use xlink:href="#m19c337e1e1" x="28.942188" y="341.458731" style="stroke: #000000; stroke-width: 0.8"/>
      </g>
     </g>
     <g id="text_11">
      <!-- −4 -->
      <g transform="translate(7.2 345.25795) scale(0.1 -0.1)">
       <defs>
        <path id="DejaVuSans-2212" d="M 678 2272 
L 4684 2272 
L 4684 1741 
L 678 1741 
L 678 2272 
z
" transform="scale(0.015625)"/>
       </defs>
       <use xlink:href="#DejaVuSans-2212"/>
       <use xlink:href="#DejaVuSans-34" transform="translate(83.789062 0)"/>
      </g>
     </g>
    </g>
    <g id="ytick_2">
     <g id="line2d_21">
      <path d="M 28.942188 286.434489 
L 705.672187 286.434489 
" clip-path="url(#pe940b6b0ef)" style="fill: none; stroke: #b0b0b0; stroke-width: 0.8; stroke-linecap: square"/>
     </g>
     <g id="line2d_22">
      <g>
       <use xlink:href="#m19c337e1e1" x="28.942188" y="286.434489" style="stroke: #000000; stroke-width: 0.8"/>
      </g>
     </g>
     <g id="text_12">
      <!-- −2 -->
      <g transform="translate(7.2 290.233707) scale(0.1 -0.1)">
       <use xlink:href="#DejaVuSans-2212"/>
       <use xlink:href="#DejaVuSans-32" transform="translate(83.789062 0)"/>
      </g>
     </g>
    </g>
    <g id="ytick_3">
     <g id="line2d_23">
      <path d="M 28.942188 231.410246 
L 705.672187 231.410246 
" clip-path="url(#pe940b6b0ef)" style="fill: none; stroke: #b0b0b0; stroke-width: 0.8; stroke-linecap: square"/>
     </g>
     <g id="line2d_24">
      <g>
       <use xlink:href="#m19c337e1e1" x="28.942188" y="231.410246" style="stroke: #000000; stroke-width: 0.8"/>
      </g>
     </g>
     <g id="text_13">
      <!-- 0 -->
      <g transform="translate(15.579688 235.209465) scale(0.1 -0.1)">
       <use xlink:href="#DejaVuSans-30"/>
      </g>
     </g>
    </g>
    <g id="ytick_4">
     <g id="line2d_25">
      <path d="M 28.942188 176.386004 
L 705.672187 176.386004 
" clip-path="url(#pe940b6b0ef)" style="fill: none; stroke: #b0b0b0; stroke-width: 0.8; stroke-linecap: square"/>
     </g>
     <g id="line2d_26">
      <g>
       <use xlink:href="#m19c337e1e1" x="28.942188" y="176.386004" style="stroke: #000000; stroke-width: 0.8"/>
      </g>
     </g>
     <g id="text_14">
      <!-- 2 -->
      <g transform="translate(15.579688 180.185223) scale(0.1 -0.1)">
       <use xlink:href="#DejaVuSans-32"/>
      </g>
     </g>
    </g>
    <g id="ytick_5">
     <g id="line2d_27">
      <path d="M 28.942188 121.361761 
L 705.672187 121.361761 
" clip-path="url(#pe940b6b0ef)" style="fill: none; stroke: #b0b0b0; stroke-width: 0.8; stroke-linecap: square"/>
     </g>
     <g id="line2d_28">
      <g>
       <use xlink:href="#m19c337e1e1" x="28.942188" y="121.361761" style="stroke: #000000; stroke-width: 0.8"/>
      </g>
     </g>
     <g id="text_15">
      <!-- 4 -->
      <g transform="translate(15.579688 125.16098) scale(0.1 -0.1)">
       <use xlink:href="#DejaVuSans-34"/>
      </g>
     </g>
    </g>
    <g id="ytick_6">
     <g id="line2d_29">
      <path d="M 28.942188 66.337519 
L 705.672187 66.337519 
" clip-path="url(#pe940b6b0ef)" style="fill: none; stroke: #b0b0b0; stroke-width: 0.8; stroke-linecap: square"/>
     </g>
     <g id="line2d_30">
      <g>
       <use xlink:href="#m19c337e1e1" x="28.942188" y="66.337519" style="stroke: #000000; stroke-width: 0.8"/>
      </g>
     </g>
     <g id="text_16">
      <!-- 6 -->
      <g transform="translate(15.579688 70.136738) scale(0.1 -0.1)">
       <defs>
        <path id="DejaVuSans-36" d="M 2113 2584 
Q 1688 2584 1439 2293 
Q 1191 2003 1191 1497 
Q 1191 994 1439 701 
Q 1688 409 2113 409 
Q 2538 409 2786 701 
Q 3034 994 3034 1497 
Q 3034 2003 2786 2293 
Q 2538 2584 2113 2584 
z
M 3366 4563 
L 3366 3988 
Q 3128 4100 2886 4159 
Q 2644 4219 2406 4219 
Q 1781 4219 1451 3797 
Q 1122 3375 1075 2522 
Q 1259 2794 1537 2939 
Q 1816 3084 2150 3084 
Q 2853 3084 3261 2657 
Q 3669 2231 3669 1497 
Q 3669 778 3244 343 
Q 2819 -91 2113 -91 
Q 1303 -91 875 529 
Q 447 1150 447 2328 
Q 447 3434 972 4092 
Q 1497 4750 2381 4750 
Q 2619 4750 2861 4703 
Q 3103 4656 3366 4563 
z
" transform="scale(0.015625)"/>
       </defs>
       <use xlink:href="#DejaVuSans-36"/>
      </g>
     </g>
    </g>
   </g>
   <g id="line2d_31">
    <path d="M 59.702642 286.434489 
L 60.979009 231.410246 
L 62.255377 148.873883 
L 63.531744 93.84964 
L 67.360846 66.337519 
L 68.637214 38.825398 
L 69.913581 231.410246 
L 71.189949 203.898125 
L 76.295418 203.898125 
L 77.571786 231.410246 
L 78.848153 176.386004 
L 80.124521 176.386004 
L 81.400888 313.94661 
L 85.22999 258.922367 
L 86.506358 231.410246 
L 87.782725 231.410246 
L 89.059092 258.922367 
L 90.33546 231.410246 
L 94.164562 203.898125 
L 95.440929 231.410246 
L 96.717297 231.410246 
L 97.993664 203.898125 
L 99.270032 203.898125 
L 103.099134 258.922367 
L 105.651869 203.898125 
L 115.862808 231.410246 
L 117.139175 203.898125 
L 120.968278 203.898125 
L 122.244645 258.922367 
L 123.521012 231.410246 
L 124.79738 286.434489 
L 131.179217 286.434489 
L 132.455584 231.410246 
L 133.731952 286.434489 
L 135.008319 258.922367 
L 138.837421 258.922367 
L 140.113789 231.410246 
L 141.390156 231.410246 
L 143.942891 286.434489 
L 147.771993 313.94661 
L 149.048361 203.898125 
L 151.601095 203.898125 
L 152.877463 258.922367 
L 156.706565 231.410246 
L 160.535667 148.873883 
L 161.812035 231.410246 
L 165.641137 203.898125 
L 166.917504 286.434489 
L 168.193872 176.386004 
L 169.470239 231.410246 
L 170.746607 176.386004 
L 174.575709 176.386004 
L 175.852076 258.922367 
L 177.128444 176.386004 
L 178.404811 258.922367 
L 179.681178 258.922367 
L 183.510281 231.410246 
L 184.786648 231.410246 
L 186.063015 203.898125 
L 188.61575 203.898125 
L 192.444853 286.434489 
L 193.72122 203.898125 
L 194.997587 148.873883 
L 197.550322 148.873883 
L 201.379424 258.922367 
L 202.655792 258.922367 
L 203.932159 231.410246 
L 205.208527 148.873883 
L 206.484894 231.410246 
L 214.143098 231.410246 
L 215.419466 148.873883 
L 220.524936 258.922367 
L 221.801303 313.94661 
L 223.07767 258.922367 
L 224.354038 231.410246 
L 228.18314 203.898125 
L 229.459507 258.922367 
L 230.735875 231.410246 
L 232.012242 231.410246 
L 233.28861 286.434489 
L 237.117712 258.922367 
L 238.394079 231.410246 
L 239.670447 258.922367 
L 240.946814 258.922367 
L 242.223181 231.410246 
L 247.328651 231.410246 
L 248.605019 203.898125 
L 249.881386 203.898125 
L 251.157753 231.410246 
L 254.986856 258.922367 
L 256.263223 258.922367 
L 257.53959 231.410246 
L 258.815958 231.410246 
L 260.092325 203.898125 
L 263.921427 231.410246 
L 265.197795 231.410246 
L 266.474162 258.922367 
L 267.75053 258.922367 
L 269.026897 286.434489 
L 272.855999 231.410246 
L 274.132367 313.94661 
L 275.408734 203.898125 
L 277.961469 258.922367 
L 281.790571 231.410246 
L 284.343306 286.434489 
L 285.619673 231.410246 
L 286.896041 203.898125 
L 290.725143 258.922367 
L 292.00151 313.94661 
L 293.277878 231.410246 
L 294.554245 231.410246 
L 295.830613 286.434489 
L 299.659715 231.410246 
L 300.936082 286.434489 
L 302.21245 231.410246 
L 303.488817 286.434489 
L 304.765184 203.898125 
L 308.594287 176.386004 
L 311.147022 231.410246 
L 312.423389 231.410246 
L 313.699756 258.922367 
L 317.528859 258.922367 
L 318.805226 176.386004 
L 320.081593 231.410246 
L 321.357961 203.898125 
L 322.634328 258.922367 
L 326.46343 176.386004 
L 327.739798 176.386004 
L 330.292533 121.361761 
L 331.5689 258.922367 
L 335.398002 231.410246 
L 336.67437 231.410246 
L 339.227105 176.386004 
L 340.503472 231.410246 
L 345.608942 231.410246 
L 346.885309 258.922367 
L 348.161676 231.410246 
L 349.438044 286.434489 
L 353.267146 313.94661 
L 355.819881 313.94661 
L 357.096248 231.410246 
L 358.372616 203.898125 
L 362.201718 231.410246 
L 363.478085 258.922367 
L 364.754453 258.922367 
L 366.03082 286.434489 
L 367.307187 231.410246 
L 373.689025 258.922367 
L 374.965392 231.410246 
L 376.241759 231.410246 
L 380.070862 258.922367 
L 381.347229 313.94661 
L 382.623596 258.922367 
L 383.899964 286.434489 
L 389.005433 286.434489 
L 390.281801 313.94661 
L 392.834536 313.94661 
L 394.110903 176.386004 
L 397.940005 176.386004 
L 399.216373 148.873883 
L 400.49274 148.873883 
L 401.769108 121.361761 
L 403.045475 231.410246 
L 406.874577 203.898125 
L 408.150945 231.410246 
L 409.427312 203.898125 
L 410.703679 231.410246 
L 411.980047 231.410246 
L 415.809149 258.922367 
L 417.085516 286.434489 
L 418.361884 231.410246 
L 419.638251 231.410246 
L 420.914619 258.922367 
L 424.743721 286.434489 
L 427.296456 231.410246 
L 429.849191 231.410246 
L 433.678293 258.922367 
L 434.95466 176.386004 
L 436.231028 148.873883 
L 437.507395 203.898125 
L 438.783762 203.898125 
L 442.612865 258.922367 
L 443.889232 341.458731 
L 445.165599 368.970852 
L 446.441967 231.410246 
L 447.718334 203.898125 
L 452.823804 203.898125 
L 454.100171 231.410246 
L 455.376539 286.434489 
L 456.652906 203.898125 
L 460.482008 258.922367 
L 461.758376 286.434489 
L 463.034743 286.434489 
L 464.311111 231.410246 
L 465.587478 258.922367 
L 469.41658 231.410246 
L 471.969315 231.410246 
L 473.245682 286.434489 
L 474.52205 231.410246 
L 478.351152 203.898125 
L 479.627519 148.873883 
L 480.903887 148.873883 
L 482.180254 203.898125 
L 483.456622 231.410246 
L 488.562091 231.410246 
L 489.838459 203.898125 
L 492.391194 258.922367 
L 496.220296 258.922367 
L 497.496663 231.410246 
L 498.773031 258.922367 
L 500.049398 231.410246 
L 501.325765 258.922367 
L 505.154868 231.410246 
L 506.431235 203.898125 
L 507.707602 203.898125 
L 508.98397 176.386004 
L 526.853114 231.410246 
L 528.129481 121.361761 
L 531.958583 121.361761 
L 533.234951 286.434489 
L 534.511318 231.410246 
L 537.064053 231.410246 
L 540.893155 258.922367 
L 542.169522 231.410246 
L 543.44589 286.434489 
L 544.722257 286.434489 
L 545.998625 258.922367 
L 549.827727 231.410246 
L 551.104094 203.898125 
L 552.380462 203.898125 
L 553.656829 258.922367 
L 554.933197 258.922367 
L 567.696871 203.898125 
L 568.973238 203.898125 
L 570.249605 231.410246 
L 571.525973 176.386004 
L 572.80234 258.922367 
L 576.631442 203.898125 
L 577.90781 203.898125 
L 579.184177 148.873883 
L 580.460545 231.410246 
L 581.736912 176.386004 
L 585.566014 203.898125 
L 588.118749 203.898125 
L 589.395117 231.410246 
L 590.671484 176.386004 
L 594.500586 176.386004 
L 595.776954 148.873883 
L 597.053321 176.386004 
L 598.329688 258.922367 
L 599.606056 286.434489 
L 603.435158 258.922367 
L 604.711525 203.898125 
L 612.36973 203.898125 
L 614.922465 258.922367 
L 616.198832 231.410246 
L 617.4752 231.410246 
L 621.304302 258.922367 
L 622.580669 258.922367 
L 623.857037 231.410246 
L 625.133404 231.410246 
L 626.409771 258.922367 
L 630.238874 286.434489 
L 631.515241 313.94661 
L 632.791608 176.386004 
L 634.067976 231.410246 
L 635.344343 258.922367 
L 640.449813 258.922367 
L 641.72618 231.410246 
L 643.002548 313.94661 
L 644.278915 313.94661 
L 649.384385 368.970852 
L 650.660752 286.434489 
L 653.213487 286.434489 
L 657.042589 313.94661 
L 658.318957 313.94661 
L 659.595324 231.410246 
L 660.871691 231.410246 
L 662.148059 176.386004 
L 665.977161 258.922367 
L 667.253529 258.922367 
L 669.806263 313.94661 
L 671.082631 176.386004 
L 674.911733 258.922367 
L 674.911733 258.922367 
" clip-path="url(#pe940b6b0ef)" style="fill: none; stroke: #000000; stroke-width: 1.5; stroke-linecap: square"/>
   </g>
   <g id="patch_3">
    <path d="M 28.942188 385.478125 
L 28.942188 22.318125 
" style="fill: none; stroke: #000000; stroke-width: 0.8; stroke-linejoin: miter; stroke-linecap: square"/>
   </g>
   <g id="patch_4">
    <path d="M 705.672187 385.478125 
L 705.672187 22.318125 
" style="fill: none; stroke: #000000; stroke-width: 0.8; stroke-linejoin: miter; stroke-linecap: square"/>
   </g>
   <g id="patch_5">
    <path d="M 28.942188 385.478125 
L 705.672187 385.478125 
" style="fill: none; stroke: #000000; stroke-width: 0.8; stroke-linejoin: miter; stroke-linecap: square"/>
   </g>
   <g id="patch_6">
    <path d="M 28.942188 22.318125 
L 705.672187 22.318125 
" style="fill: none; stroke: #000000; stroke-width: 0.8; stroke-linejoin: miter; stroke-linecap: square"/>
   </g>
   <g id="text_17">
    <!-- Inventory Value Over Time -->
    <g transform="translate(287.336562 16.318125) scale(0.12 -0.12)">
     <defs>
      <path id="DejaVuSans-49" d="M 628 4666 
L 1259 4666 
L 1259 0 
L 628 0 
L 628 4666 
z
" transform="scale(0.015625)"/>
      <path id="DejaVuSans-6e" d="M 3513 2113 
L 3513 0 
L 2938 0 
L 2938 2094 
Q 2938 2591 2744 2837 
Q 2550 3084 2163 3084 
Q 1697 3084 1428 2787 
Q 1159 2491 1159 1978 
L 1159 0 
L 581 0 
L 581 3500 
L 1159 3500 
L 1159 2956 
Q 1366 3272 1645 3428 
Q 1925 3584 2291 3584 
Q 2894 3584 3203 3211 
Q 3513 2838 3513 2113 
z
" transform="scale(0.015625)"/>
      <path id="DejaVuSans-76" d="M 191 3500 
L 800 3500 
L 1894 563 
L 2988 3500 
L 3597 3500 
L 2284 0 
L 1503 0 
L 191 3500 
z
" transform="scale(0.015625)"/>
      <path id="DejaVuSans-6f" d="M 1959 3097 
Q 1497 3097 1228 2736 
Q 959 2375 959 1747 
Q 959 1119 1226 758 
Q 1494 397 1959 397 
Q 2419 397 2687 759 
Q 2956 1122 2956 1747 
Q 2956 2369 2687 2733 
Q 2419 3097 1959 3097 
z
M 1959 3584 
Q 2709 3584 3137 3096 
Q 3566 2609 3566 1747 
Q 3566 888 3137 398 
Q 2709 -91 1959 -91 
Q 1206 -91 779 398 
Q 353 888 353 1747 
Q 353 2609 779 3096 
Q 1206 3584 1959 3584 
z
" transform="scale(0.015625)"/>
      <path id="DejaVuSans-72" d="M 2631 2963 
Q 2534 3019 2420 3045 
Q 2306 3072 2169 3072 
Q 1681 3072 1420 2755 
Q 1159 2438 1159 1844 
L 1159 0 
L 581 0 
L 581 3500 
L 1159 3500 
L 1159 2956 
Q 1341 3275 1631 3429 
Q 1922 3584 2338 3584 
Q 2397 3584 2469 3576 
Q 2541 3569 2628 3553 
L 2631 2963 
z
" transform="scale(0.015625)"/>
      <path id="DejaVuSans-79" d="M 2059 -325 
Q 1816 -950 1584 -1140 
Q 1353 -1331 966 -1331 
L 506 -1331 
L 506 -850 
L 844 -850 
Q 1081 -850 1212 -737 
Q 1344 -625 1503 -206 
L 1606 56 
L 191 3500 
L 800 3500 
L 1894 763 
L 2988 3500 
L 3597 3500 
L 2059 -325 
z
" transform="scale(0.015625)"/>
      <path id="DejaVuSans-56" d="M 1831 0 
L 50 4666 
L 709 4666 
L 2188 738 
L 3669 4666 
L 4325 4666 
L 2547 0 
L 1831 0 
z
" transform="scale(0.015625)"/>
      <path id="DejaVuSans-61" d="M 2194 1759 
Q 1497 1759 1228 1600 
Q 959 1441 959 1056 
Q 959 750 1161 570 
Q 1363 391 1709 391 
Q 2188 391 2477 730 
Q 2766 1069 2766 1631 
L 2766 1759 
L 2194 1759 
z
M 3341 1997 
L 3341 0 
L 2766 0 
L 2766 531 
Q 2569 213 2275 61 
Q 1981 -91 1556 -91 
Q 1019 -91 701 211 
Q 384 513 384 1019 
Q 384 1609 779 1909 
Q 1175 2209 1959 2209 
L 2766 2209 
L 2766 2266 
Q 2766 2663 2505 2880 
Q 2244 3097 1772 3097 
Q 1472 3097 1187 3025 
Q 903 2953 641 2809 
L 641 3341 
Q 956 3463 1253 3523 
Q 1550 3584 1831 3584 
Q 2591 3584 2966 3190 
Q 3341 2797 3341 1997 
z
" transform="scale(0.015625)"/>
      <path id="DejaVuSans-6c" d="M 603 4863 
L 1178 4863 
L 1178 0 
L 603 0 
L 603 4863 
z
" transform="scale(0.015625)"/>
      <path id="DejaVuSans-75" d="M 544 1381 
L 544 3500 
L 1119 3500 
L 1119 1403 
Q 1119 906 1312 657 
Q 1506 409 1894 409 
Q 2359 409 2629 706 
Q 2900 1003 2900 1516 
L 2900 3500 
L 3475 3500 
L 3475 0 
L 2900 0 
L 2900 538 
Q 2691 219 2414 64 
Q 2138 -91 1772 -91 
Q 1169 -91 856 284 
Q 544 659 544 1381 
z
M 1991 3584 
L 1991 3584 
z
" transform="scale(0.015625)"/>
      <path id="DejaVuSans-4f" d="M 2522 4238 
Q 1834 4238 1429 3725 
Q 1025 3213 1025 2328 
Q 1025 1447 1429 934 
Q 1834 422 2522 422 
Q 3209 422 3611 934 
Q 4013 1447 4013 2328 
Q 4013 3213 3611 3725 
Q 3209 4238 2522 4238 
z
M 2522 4750 
Q 3503 4750 4090 4092 
Q 4678 3434 4678 2328 
Q 4678 1225 4090 567 
Q 3503 -91 2522 -91 
Q 1538 -91 948 565 
Q 359 1222 359 2328 
Q 359 3434 948 4092 
Q 1538 4750 2522 4750 
z
" transform="scale(0.015625)"/>
     </defs>
     <use xlink:href="#DejaVuSans-49"/>
     <use xlink:href="#DejaVuSans-6e" transform="translate(29.492188 0)"/>
     <use xlink:href="#DejaVuSans-76" transform="translate(92.871094 0)"/>
     <use xlink:href="#DejaVuSans-65" transform="translate(152.050781 0)"/>
     <use xlink:href="#DejaVuSans-6e" transform="translate(213.574219 0)"/>
     <use xlink:href="#DejaVuSans-74" transform="translate(276.953125 0)"/>
     <use xlink:href="#DejaVuSans-6f" transform="translate(316.162109 0)"/>
     <use xlink:href="#DejaVuSans-72" transform="translate(377.34375 0)"/>
     <use xlink:href="#DejaVuSans-79" transform="translate(418.457031 0)"/>
     <use xlink:href="#DejaVuSans-20" transform="translate(477.636719 0)"/>
     <use xlink:href="#DejaVuSans-56" transform="translate(509.423828 0)"/>
     <use xlink:href="#DejaVuSans-61" transform="translate(570.082031 0)"/>
     <use xlink:href="#DejaVuSans-6c" transform="translate(631.361328 0)"/>
     <use xlink:href="#DejaVuSans-75" transform="translate(659.144531 0)"/>
     <use xlink:href="#DejaVuSans-65" transform="translate(722.523438 0)"/>
     <use xlink:href="#DejaVuSans-20" transform="translate(784.046875 0)"/>
     <use xlink:href="#DejaVuSans-4f" transform="translate(815.833984 0)"/>
     <use xlink:href="#DejaVuSans-76" transform="translate(894.544922 0)"/>
     <use xlink:href="#DejaVuSans-65" transform="translate(953.724609 0)"/>
     <use xlink:href="#DejaVuSans-72" transform="translate(1015.248047 0)"/>
     <use xlink:href="#DejaVuSans-20" transform="translate(1056.361328 0)"/>
     <use xlink:href="#DejaVuSans-54" transform="translate(1088.148438 0)"/>
     <use xlink:href="#DejaVuSans-69" transform="translate(1146.107422 0)"/>
     <use xlink:href="#DejaVuSans-6d" transform="translate(1173.890625 0)"/>
     <use xlink:href="#DejaVuSans-65" transform="translate(1271.302734 0)"/>
    </g>
   </g>
  </g>
 </g>
 <defs>
  <clipPath id="pe940b6b0ef">
   <rect x="28.942188" y="22.318125" width="676.73" height="363.16"/>
  </clipPath>
 </defs>
</svg>
